<svg width="201" height="84" viewBox="0 0 201 84" fill="none" xmlns="http://www.w3.org/2000/svg">
<path d="M16.7734 27.8828C17.151 27.8828 17.3398 28.1367 17.3398 28.6445C17.3398 29.0742 17.2096 29.4909 16.9492 29.8945C16.5977 30.6497 15.8945 31.3659 14.8398 32.043C13.6419 32.8112 12.4375 33.1953 11.2266 33.1953C9.13021 33.1953 7.80208 32.2578 7.24219 30.3828C6.57812 28.1562 7.57422 23.4362 10.2305 16.2227C8.73307 16.0924 7.91927 15.832 7.78906 15.4414C7.75 15.3242 7.73047 15.2005 7.73047 15.0703C7.73047 14.9271 7.78906 14.7643 7.90625 14.582C8.03646 14.3997 8.19922 14.224 8.39453 14.0547C8.85026 13.6771 9.3125 13.4883 9.78125 13.4883H11.3242C12.7305 10.194 13.7331 8.31901 14.332 7.86328C14.6185 7.65495 14.9375 7.55078 15.2891 7.55078C15.6406 7.55078 15.9336 7.59635 16.168 7.6875C16.4023 7.77865 16.6107 7.90885 16.793 8.07812C17.2096 8.46875 17.418 8.90495 17.418 9.38672C17.418 9.64714 17.3398 9.94661 17.1836 10.2852L15.7383 13.4297H16.207C17.0143 13.4297 17.6654 13.4232 18.1602 13.4102C18.1602 13.4102 18.5312 13.4036 19.2734 13.3906C19.5208 13.3776 19.8268 13.3711 20.1914 13.3711C20.569 13.3711 20.7578 13.5078 20.7578 13.7812C20.7578 15.5 18.7266 16.3594 14.6641 16.3594H14.5078L13.1797 19.7969C11.6823 23.8594 10.9336 26.7044 10.9336 28.332C10.9336 28.7878 11.0378 29.1458 11.2461 29.4062C11.4544 29.6536 11.8451 29.7773 12.418 29.7773C12.9909 29.7773 13.5117 29.6797 13.9805 29.4844C14.4492 29.2891 14.8594 29.0742 15.2109 28.8398C15.5625 28.5924 15.862 28.3711 16.1094 28.1758C16.3698 27.9805 16.5911 27.8828 16.7734 27.8828ZM33.8828 16.4766C33.1667 16.4766 31.8841 17.5703 30.0352 19.7578L28.4141 21.75L25.2891 25.832C24.5339 27.2643 23.9414 28.4557 23.5117 29.4062L22.457 31.6719C22.1836 32.2318 21.9427 32.6289 21.7344 32.8633C21.5391 33.0846 21.2656 33.1953 20.9141 33.1953C20.5755 33.1953 20.2435 33.1302 19.918 33C19.6055 32.8828 19.332 32.7266 19.0977 32.5312C18.6029 32.1146 18.3555 31.6589 18.3555 31.1641C18.3555 30.9688 18.4922 30.5846 18.7656 30.0117L19.5469 28.4297C21.9818 23.4167 24.1888 17.0625 26.168 9.36719C26.8971 6.52865 27.4245 3.97656 27.75 1.71094C27.8932 0.617188 28.4271 0.0703125 29.3516 0.0703125C29.9505 0.0703125 30.4453 0.213542 30.8359 0.5C31.5911 1.0599 31.9557 1.65885 31.9297 2.29688C31.9036 2.9349 31.8125 3.65104 31.6562 4.44531C31.5 5.23958 31.2982 6.10547 31.0508 7.04297C30.8034 7.96745 30.5234 8.94401 30.2109 9.97266C29.3516 12.5898 28.7135 14.4779 28.2969 15.6367C27.0208 19.1393 26.2331 21.1901 25.9336 21.7891C26.1289 21.5547 26.3828 21.2357 26.6953 20.832C29.0651 17.7201 30.5299 15.8646 31.0898 15.2656C31.6497 14.6536 32.125 14.1849 32.5156 13.8594C33.3359 13.1432 34.3776 12.7852 35.6406 12.7852C36.6693 12.7852 37.4961 13.1302 38.1211 13.8203C38.707 14.4844 39 15.2135 39 16.0078C39 16.7891 38.9089 17.4987 38.7266 18.1367C38.5573 18.7617 38.3359 19.3997 38.0625 20.0508C37.7891 20.7018 37.4896 21.3724 37.1641 22.0625L36.1875 24.1133C35.276 26.1836 34.8203 27.7201 34.8203 28.7227C34.8203 29.4258 35.1068 29.7773 35.6797 29.7773C36.2266 29.7773 36.7214 29.6602 37.1641 29.4258C37.6198 29.1914 37.9128 29.0742 38.043 29.0742C38.3164 29.0742 38.4531 29.2109 38.4531 29.4844C38.4531 30.6432 37.8672 31.6133 36.6953 32.3945C35.888 32.9284 35.1523 33.1953 34.4883 33.1953C33.8242 33.1953 33.2708 33.1302 32.8281 33C32.3984 32.8568 32.0143 32.6289 31.6758 32.3164C30.9076 31.6133 30.5234 30.5781 30.5234 29.2109C30.5234 27.7396 31.0052 25.8906 31.9688 23.6641L34.0781 19.1719C34.4818 18.3385 34.6836 17.681 34.6836 17.1992C34.6836 16.7174 34.4167 16.4766 33.8828 16.4766ZM42.2031 26.1641C42.2552 25.0312 42.444 23.9505 42.7695 22.9219C43.0951 21.8802 43.5312 20.8776 44.0781 19.9141C44.625 18.9375 45.263 18.0195 45.9922 17.1602C46.7344 16.2878 47.5352 15.526 48.3945 14.875C50.2565 13.4818 52.138 12.7852 54.0391 12.7852C56.2656 12.7852 57.75 13.7031 58.4922 15.5391C58.7526 16.1641 58.8763 16.9062 58.8633 17.7656C58.8503 18.612 58.6875 19.3997 58.375 20.1289C58.0625 20.8451 57.6263 21.5026 57.0664 22.1016C56.5195 22.6875 55.862 23.2148 55.0938 23.6836C54.3385 24.1523 53.5117 24.5495 52.6133 24.875C50.7643 25.526 48.7852 25.8646 46.6758 25.8906C46.6237 26.0729 46.5911 26.3464 46.5781 26.7109C46.5651 27.0755 46.6042 27.4857 46.6953 27.9414C46.7865 28.3841 46.9427 28.7812 47.1641 29.1328C47.6328 29.9141 48.3099 30.3047 49.1953 30.3047C50.7057 30.3047 52.1771 29.862 53.6094 28.9766C54.1172 28.6771 54.5273 28.3711 54.8398 28.0586C55.1654 27.7331 55.4453 27.5703 55.6797 27.5703C55.9141 27.5703 56.1159 27.7135 56.2852 28C56.4674 28.2734 56.5586 28.5859 56.5586 28.9375C56.5586 29.6276 56.3633 30.2266 55.9727 30.7344C54.332 32.375 51.8906 33.1953 48.6484 33.1953C46.7344 33.1953 45.1979 32.6224 44.0391 31.4766C42.737 30.1745 42.125 28.4036 42.2031 26.1641ZM53.6094 15.3828C52.2422 15.3828 50.9271 16.3203 49.6641 18.1953C48.5964 19.8099 47.737 21.724 47.0859 23.9375C49.2604 23.7161 51.1484 22.8568 52.75 21.3594C54.2214 19.9531 54.957 18.6055 54.957 17.3164C54.957 16.0273 54.5078 15.3828 53.6094 15.3828ZM73.6875 24.7969L73.707 24.2305C73.8503 20.3372 74.8333 16.6589 76.6562 13.1953C78.3359 10.0312 80.4518 7.47266 83.0039 5.51953C85.5299 3.59245 87.9909 2.62891 90.3867 2.62891C92.2096 2.62891 93.6484 3.26042 94.7031 4.52344C95.6016 5.61719 96.0508 6.95833 96.0508 8.54688C96.0508 10.4479 95.3542 12.3229 93.9609 14.1719C93.1536 15.2396 92.2943 16.0078 91.3828 16.4766C90.9531 16.7109 90.5495 16.8281 90.1719 16.8281C89.8073 16.8281 89.4688 16.75 89.1562 16.5938C88.8438 16.4375 88.5703 16.2422 88.3359 16.0078C87.8542 15.5 87.6133 15.0443 87.6133 14.6406C87.6133 14.237 87.7174 13.957 87.9258 13.8008C90.0612 12.2643 91.513 10.6823 92.2812 9.05469C92.5807 8.42969 92.7305 7.81771 92.7305 7.21875C92.7305 5.95573 92.1315 5.32422 90.9336 5.32422C89.0586 5.32422 87.125 6.34635 85.1328 8.39062C83.2708 10.2786 81.7083 12.6484 80.4453 15.5C79.1302 18.4297 78.4336 21.1185 78.3555 23.5664L78.3359 24.3086C78.3359 27.2383 78.9544 29.1589 80.1914 30.0703C80.6341 30.3958 81.1615 30.5586 81.7734 30.5586C82.3984 30.5586 82.9844 30.4805 83.5312 30.3242C84.0781 30.168 84.625 29.9531 85.1719 29.6797C86.0573 29.224 87.1901 28.4362 88.5703 27.3164C88.987 26.9909 89.332 27.0365 89.6055 27.4531C89.8398 27.7917 89.957 28.1823 89.957 28.625C89.957 29.3672 89.8529 29.875 89.6445 30.1484C89.4492 30.4089 89.1042 30.7214 88.6094 31.0859C88.1276 31.4505 87.5352 31.7891 86.832 32.1016C85.1914 32.8307 83.5833 33.1953 82.0078 33.1953C80.4323 33.1953 79.1628 33.0065 78.1992 32.6289C77.2357 32.2383 76.4219 31.6849 75.7578 30.9688C74.3776 29.4583 73.6875 27.401 73.6875 24.7969ZM109.625 27.8047C109.625 29.0026 110.048 29.6016 110.895 29.6016C111.48 29.6016 111.962 29.5104 112.34 29.3281C112.73 29.1458 112.991 29.0547 113.121 29.0547C113.395 29.0547 113.531 29.1979 113.531 29.4844C113.531 30.6042 112.945 31.5677 111.773 32.375C110.536 33.2214 109.273 33.4297 107.984 33C107.138 32.7005 106.513 32.056 106.109 31.0664C105.914 30.5586 105.816 30.0964 105.816 29.6797C105.816 29.0026 105.882 28.2865 106.012 27.5312C104.801 30.0052 103.297 31.7109 101.5 32.6484C100.784 33.013 100.022 33.1953 99.2148 33.1953C98.4076 33.1953 97.7044 33.0326 97.1055 32.707C96.5195 32.3685 96.0182 31.9062 95.6016 31.3203C94.7552 30.0964 94.3711 28.5599 94.4492 26.7109C94.5273 24.3932 95.2109 22.1211 96.5 19.8945C97.6849 17.8112 99.1823 16.112 100.992 14.7969C102.802 13.4557 104.495 12.7852 106.07 12.7852C107.646 12.7852 108.915 13.5078 109.879 14.9531C110.777 13.5078 111.572 12.7852 112.262 12.7852C113.004 12.7852 113.564 12.9219 113.941 13.1953C114.658 13.7161 114.911 14.1719 114.703 14.5625C111.435 21.2552 109.755 25.4219 109.664 27.0625C109.638 27.2969 109.625 27.5443 109.625 27.8047ZM98.7852 27.8828C98.7852 29.4453 99.2865 30.2266 100.289 30.2266C101.057 30.2266 102.001 29.5755 103.121 28.2734C104.762 26.3594 106.214 23.7812 107.477 20.5391C107.88 19.5234 108.219 18.5078 108.492 17.4922C108.44 16.6068 108.069 15.9557 107.379 15.5391C107.145 15.3958 106.793 15.3242 106.324 15.3242C105.868 15.3242 105.328 15.4935 104.703 15.832C104.091 16.1706 103.492 16.6328 102.906 17.2188C102.333 17.8047 101.793 18.5013 101.285 19.3086C100.79 20.1029 100.354 20.9688 99.9766 21.9062C99.1823 23.9115 98.7852 25.9036 98.7852 27.8828ZM116.305 32.5312C116.044 32.3359 115.836 32.1211 115.68 31.8867C115.523 31.6393 115.439 31.431 115.426 31.2617C115.413 31.0794 115.445 30.8646 115.523 30.6172C115.615 30.3568 115.732 30.0443 115.875 29.6797C118.531 23.1432 119.859 18.7552 119.859 16.5156C119.82 15.8906 119.605 15.4479 119.215 15.1875L118.824 14.9141C118.707 14.8229 118.642 14.6667 118.629 14.4453C118.629 14.2109 118.714 13.9896 118.883 13.7812C119.052 13.5729 119.273 13.3906 119.547 13.2344C120.107 12.9349 120.68 12.7852 121.266 12.7852C121.865 12.7852 122.327 12.8503 122.652 12.9805C122.991 13.1107 123.277 13.2865 123.512 13.5078C124.007 13.9766 124.254 14.4714 124.254 14.9922C124.267 15.513 124.208 16.0404 124.078 16.5742C123.961 17.1081 123.818 17.6354 123.648 18.1562C123.479 18.6641 123.31 19.1523 123.141 19.6211C122.971 20.0768 122.861 20.4154 122.809 20.6367C122.704 21.0924 122.665 21.3789 122.691 21.4961C123.004 21.2227 123.193 20.9557 123.258 20.6953L124.02 19.25C125.712 16.2031 127.366 14.1849 128.98 13.1953C129.449 12.9219 130.009 12.7852 130.66 12.7852C131.324 12.7852 131.858 13.0195 132.262 13.4883C132.665 13.944 132.874 14.4518 132.887 15.0117C132.913 15.5716 132.874 16.0404 132.77 16.418C132.678 16.7826 132.535 17.1276 132.34 17.4531C131.91 18.1823 131.389 18.5469 130.777 18.5469C130.608 18.5469 130.452 18.4883 130.309 18.3711L129.879 18C129.449 17.6224 129.033 17.4336 128.629 17.4336C128.238 17.4336 127.757 17.694 127.184 18.2148C126.624 18.7357 126.038 19.4062 125.426 20.2266C123.368 22.9479 121.689 25.9948 120.387 29.3672L119.527 31.6328C119.306 32.1927 119.111 32.5964 118.941 32.8438C118.772 33.0781 118.518 33.1953 118.18 33.1953C117.854 33.1953 117.522 33.1302 117.184 33C116.858 32.8828 116.565 32.7266 116.305 32.5312ZM18.5703 78.5664C18.5703 76.8086 19.0716 74.1133 20.0742 70.4805C16.9362 70.5586 14.5339 70.6497 12.8672 70.7539C12.3594 71.6784 11.8971 72.5573 11.4805 73.3906L10.2695 75.793C8.66797 78.944 7.22917 81.0208 5.95312 82.0234C4.97656 82.8047 3.94141 83.1953 2.84766 83.1953C2.01432 83.1953 1.38281 82.9219 0.953125 82.375C0.796875 82.1536 0.705729 81.9453 0.679688 81.75C0.653646 81.5417 0.699219 81.4049 0.816406 81.3398C2.3138 80.7799 3.53125 79.9271 4.46875 78.7812C5.28906 77.7526 6.10938 76.4961 6.92969 75.0117L9.13672 71.0664L7.90625 71.2422C7.125 71.3854 6.73438 71.2617 6.73438 70.8711C6.73438 70.4805 6.96875 70.1094 7.4375 69.7578C8.25781 69.1458 9.05859 68.7422 9.83984 68.5469L10.6797 68.3516C12.8151 64.8229 14.4427 62.3555 15.5625 60.9492C16.6953 59.543 17.724 58.3711 18.6484 57.4336C19.5859 56.4961 20.569 55.6693 21.5977 54.9531C23.8503 53.4036 26.0703 52.6289 28.2578 52.6289C28.9219 52.6289 29.3711 52.7656 29.6055 53.0391C29.9961 53.4688 30.1198 53.931 29.9766 54.4258C29.8333 54.9076 29.599 55.6042 29.2734 56.5156C27.1901 62.1927 25.9206 65.7083 25.4648 67.0625C25.6732 67.0495 25.862 67.043 26.0312 67.043H26.4609C27.9193 67.043 28.7005 67.1862 28.8047 67.4727C28.8307 67.5638 28.8438 67.7331 28.8438 67.9805C28.8438 68.2148 28.7656 68.4883 28.6094 68.8008C28.4661 69.1133 28.2253 69.3802 27.8867 69.6016C27.1966 70.0703 26.0378 70.3438 24.4102 70.4219C23.5247 73.4818 23.0169 75.5977 22.8867 76.7695C22.7695 77.9414 22.8086 78.7357 23.0039 79.1523C23.2122 79.556 23.4987 79.7578 23.8633 79.7578C24.2409 79.7578 24.5469 79.7253 24.7812 79.6602C25.0156 79.582 25.224 79.4974 25.4062 79.4062L25.9141 79.1719C26.0443 79.0938 26.1745 79.0547 26.3047 79.0547C26.4479 79.0547 26.5651 79.1458 26.6562 79.3281C26.7474 79.4974 26.793 79.7253 26.793 80.0117C26.793 80.2982 26.6693 80.6432 26.4219 81.0469C26.1875 81.4375 25.875 81.7891 25.4844 82.1016C24.5729 82.8307 23.5443 83.1953 22.3984 83.1953C20.6406 83.1953 19.4688 82.4141 18.8828 80.8516C18.6745 80.3047 18.5703 79.8164 18.5703 79.3867V78.5664ZM14.6641 67.668C16.9818 67.3685 19.1302 67.1927 21.1094 67.1406C21.474 66.0208 21.8646 64.9141 22.2812 63.8203L23.4922 60.6953C23.9089 59.7057 24.319 58.7682 24.7227 57.8828L25.8555 55.4805C23.1471 56.1836 20.4714 58.5208 17.8281 62.4922C17.2682 63.3255 16.7214 64.1849 16.1875 65.0703L14.6641 67.668ZM48.2773 79.1523C48.5768 79.1523 48.7266 79.3021 48.7266 79.6016C48.7266 80.7344 48.1667 81.6849 47.0469 82.4531C46.2917 82.9479 45.4062 83.1953 44.3906 83.1953C43.5573 83.1953 42.9193 83 42.4766 82.6094C41.6823 81.9062 41.2852 81.0469 41.2852 80.0312C41.2852 78.7422 41.8255 76.7695 42.9062 74.1133C40.901 76.8216 39.4948 78.625 38.6875 79.5234C37.8802 80.4089 37.1771 81.099 36.5781 81.5938C35.276 82.6615 34.0977 83.1953 33.043 83.1953C31.4284 83.1953 30.3542 82.4987 29.8203 81.1055C29.6641 80.6758 29.5859 80.1875 29.5859 79.6406C29.5859 79.0807 29.6771 78.4622 29.8594 77.7852C30.0547 77.0951 30.3021 76.3789 30.6016 75.6367C30.901 74.8945 31.2266 74.1328 31.5781 73.3516L32.6328 71.0078C33.987 68 34.4883 66.2161 34.1367 65.6562C33.9805 65.4089 33.6875 65.1615 33.2578 64.9141C33.1016 64.8229 33.0234 64.6667 33.0234 64.4453C33.0234 64.2109 33.1146 63.9896 33.2969 63.7812C33.4922 63.5729 33.7396 63.3906 34.0391 63.2344C34.6771 62.9349 35.3151 62.7852 35.9531 62.7852C36.5911 62.7852 37.0729 62.8568 37.3984 63C37.737 63.1302 38.0104 63.2995 38.2188 63.5078C38.6484 63.9375 38.8633 64.4128 38.8633 64.9336C38.8633 65.4544 38.7786 66.0404 38.6094 66.6914C38.4401 67.3294 38.2188 68.026 37.9453 68.7812C37.6719 69.5365 37.3724 70.3177 37.0469 71.125C36.1484 73.2344 35.543 74.6276 35.2305 75.3047L34.5078 76.8086C34.1042 77.707 33.9023 78.3385 33.9023 78.7031C33.9023 79.0677 33.9609 79.3281 34.0781 79.4844C34.1953 79.6276 34.4036 79.6992 34.7031 79.6992C35.0156 79.6992 35.3737 79.556 35.7773 79.2695C36.181 78.9831 36.6237 78.599 37.1055 78.1172C37.5872 77.6354 38.0885 77.082 38.6094 76.457C39.1302 75.819 39.638 75.1615 40.1328 74.4844C41.1094 73.1562 41.8255 72.0885 42.2812 71.2812C45.0417 66.3984 46.513 63.8464 46.6953 63.625C47.112 63.0651 47.5352 62.7852 47.9648 62.7852C48.4076 62.7852 48.7917 62.8372 49.1172 62.9414C49.4427 63.0326 49.7227 63.1693 49.957 63.3516C50.5039 63.7552 50.6797 64.1589 50.4844 64.5625C47.3073 71.1901 45.5951 75.3568 45.3477 77.0625C45.2826 77.6484 45.25 78.0521 45.25 78.2734C45.25 79.263 45.5495 79.7578 46.1484 79.7578C46.7083 79.7578 47.1706 79.6602 47.5352 79.4648C47.8997 79.2565 48.1471 79.1523 48.2773 79.1523ZM63.5703 77.8828C63.9479 77.8828 64.1367 78.1367 64.1367 78.6445C64.1367 79.0742 64.0065 79.4909 63.7461 79.8945C63.3945 80.6497 62.6914 81.3659 61.6367 82.043C60.4388 82.8112 59.2344 83.1953 58.0234 83.1953C55.9271 83.1953 54.599 82.2578 54.0391 80.3828C53.375 78.1562 54.3711 73.4362 57.0273 66.2227C55.5299 66.0924 54.7161 65.832 54.5859 65.4414C54.5469 65.3242 54.5273 65.2005 54.5273 65.0703C54.5273 64.9271 54.5859 64.7643 54.7031 64.582C54.8333 64.3997 54.9961 64.224 55.1914 64.0547C55.6471 63.6771 56.1094 63.4883 56.5781 63.4883H58.1211C59.5273 60.194 60.5299 58.319 61.1289 57.8633C61.4154 57.6549 61.7344 57.5508 62.0859 57.5508C62.4375 57.5508 62.7305 57.5964 62.9648 57.6875C63.1992 57.7786 63.4076 57.9089 63.5898 58.0781C64.0065 58.4688 64.2148 58.9049 64.2148 59.3867C64.2148 59.6471 64.1367 59.9466 63.9805 60.2852L62.5352 63.4297H63.0039C63.8112 63.4297 64.4622 63.4232 64.957 63.4102C64.957 63.4102 65.3281 63.4036 66.0703 63.3906C66.3177 63.3776 66.6237 63.3711 66.9883 63.3711C67.3659 63.3711 67.5547 63.5078 67.5547 63.7812C67.5547 65.5 65.5234 66.3594 61.4609 66.3594H61.3047L59.9766 69.7969C58.4792 73.8594 57.7305 76.7044 57.7305 78.332C57.7305 78.7878 57.8346 79.1458 58.043 79.4062C58.2513 79.6536 58.6419 79.7773 59.2148 79.7773C59.7878 79.7773 60.3086 79.6797 60.7773 79.4844C61.2461 79.2891 61.6562 79.0742 62.0078 78.8398C62.3594 78.5924 62.6589 78.3711 62.9062 78.1758C63.1667 77.9805 63.388 77.8828 63.5703 77.8828ZM68.3945 81.6719C67.8477 81.151 67.418 80.4935 67.1055 79.6992C66.793 78.8919 66.6302 77.9414 66.6172 76.8477C66.6042 75.7539 66.7344 74.6471 67.0078 73.5273C67.2943 72.4076 67.6914 71.3268 68.1992 70.2852C68.7201 69.2435 69.3385 68.2669 70.0547 67.3555C70.7839 66.444 71.5846 65.6497 72.457 64.9727C74.3581 63.5143 76.3307 62.7852 78.375 62.7852C81.0573 62.7852 82.8737 63.9635 83.8242 66.3203C84.5013 68.026 84.5404 70.0898 83.9414 72.5117C83.3945 74.7383 82.3919 76.7826 80.9336 78.6445C79.4883 80.5065 77.7826 81.8281 75.8164 82.6094C74.8268 83 73.8503 83.1953 72.8867 83.1953C71.9362 83.1953 71.0833 83.0716 70.3281 82.8242C69.5859 82.5768 68.9414 82.1927 68.3945 81.6719ZM72.125 72.1992C71.7344 73.1628 71.4219 74.1523 71.1875 75.168C70.9661 76.1836 70.862 77.1471 70.875 78.0586C70.888 78.957 71.0247 79.6667 71.2852 80.1875C71.5586 80.6953 71.9948 80.9492 72.5938 80.9492C73.1927 80.9492 73.7786 80.7474 74.3516 80.3438C74.9375 79.9271 75.5039 79.3802 76.0508 78.7031C76.5977 78.026 77.112 77.2448 77.5938 76.3594C78.0755 75.474 78.4987 74.5495 78.8633 73.5859C79.6576 71.4896 80.0417 69.6276 80.0156 68C80.0156 66.5677 79.7227 65.6562 79.1367 65.2656C78.9023 65.1094 78.5703 65.0312 78.1406 65.0312C77.724 65.0312 77.2422 65.2266 76.6953 65.6172C76.1484 65.9948 75.6016 66.5091 75.0547 67.1602C74.5078 67.8112 73.9805 68.5729 73.4727 69.4453C72.9648 70.3177 72.5156 71.2357 72.125 72.1992ZM101.891 66.4766C101.135 66.4766 99.7552 67.5703 97.75 69.7578C96.2526 71.4635 95.1654 72.7461 94.4883 73.6055L92.7305 75.832C91.9753 77.2643 91.3828 78.4557 90.9531 79.4062L89.8984 81.6719C89.625 82.2318 89.3841 82.6289 89.1758 82.8633C88.9805 83.0846 88.707 83.1953 88.3555 83.1953C88.0169 83.1953 87.6849 83.1302 87.3594 83C87.0469 82.8828 86.7734 82.7266 86.5391 82.5312C86.0443 82.1146 85.7969 81.6589 85.7969 81.1641C85.7969 80.9688 85.9401 80.5846 86.2266 80.0117L86.9688 78.4297C87.2031 77.9609 87.4766 77.362 87.7891 76.6328L88.8828 73.957C90.4193 70.1159 91.1875 67.6354 91.1875 66.5156C91.1875 65.9167 90.9922 65.474 90.6016 65.1875L90.2109 64.9141C90.0807 64.8229 90.0156 64.6667 90.0156 64.4453C90.0156 64.2109 90.1003 63.9896 90.2695 63.7812C90.4518 63.5729 90.6862 63.3906 90.9727 63.2344C91.5586 62.9349 92.1445 62.7852 92.7305 62.7852C93.3294 62.7852 93.7982 62.8503 94.1367 62.9805C94.4753 63.1107 94.7682 63.2865 95.0156 63.5078C95.5104 63.9635 95.7578 64.4388 95.7578 64.9336C95.7578 65.4284 95.6927 65.9297 95.5625 66.4375C95.4323 66.9323 95.2695 67.4401 95.0742 67.9609C94.8789 68.4688 94.6706 68.9635 94.4492 69.4453C93.9284 70.5651 93.6029 71.2552 93.4727 71.5156C93.3555 71.763 93.3229 71.8542 93.375 71.7891C95.7578 68.7031 97.1901 66.8802 97.6719 66.3203C98.6745 65.1615 99.4557 64.3672 100.016 63.9375C101.044 63.1693 102.014 62.7852 102.926 62.7852C103.85 62.7852 104.586 63.0716 105.133 63.6445C105.68 64.2174 105.953 64.9727 105.953 65.9102C105.953 66.7305 105.745 67.694 105.328 68.8008C104.911 69.9076 104.632 70.6823 104.488 71.125L107.359 67.3359L108.961 65.4219C109.924 64.3411 110.771 63.6315 111.5 63.293C112.229 62.9544 112.822 62.7852 113.277 62.7852C113.746 62.7852 114.202 62.8698 114.645 63.0391C115.1 63.2083 115.484 63.4492 115.797 63.7617C116.461 64.3997 116.793 65.2461 116.793 66.3008C116.793 67.3164 116.559 68.3581 116.09 69.4258C115.621 70.4935 115.211 71.3724 114.859 72.0625C114.508 72.7396 114.169 73.4232 113.844 74.1133C112.893 76.1836 112.418 77.7201 112.418 78.7227C112.418 79.4258 112.704 79.7773 113.277 79.7773C113.824 79.7773 114.319 79.6602 114.762 79.4258C115.217 79.1914 115.51 79.0742 115.641 79.0742C115.914 79.0742 116.051 79.2109 116.051 79.4844C116.051 80.6432 115.458 81.6133 114.273 82.3945C113.479 82.9284 112.75 83.1953 112.086 83.1953C111.435 83.1953 110.908 83.1172 110.504 82.9609C110.1 82.8047 109.736 82.5573 109.41 82.2188C108.681 81.4635 108.316 80.5195 108.316 79.3867C108.316 78.2539 108.46 77.2122 108.746 76.2617C109.033 75.3112 109.371 74.3932 109.762 73.5078C110.152 72.6094 110.543 71.7891 110.934 71.0469C111.337 70.2917 111.643 69.6927 111.852 69.25C112.268 68.3385 112.477 67.668 112.477 67.2383C112.477 66.7305 112.21 66.4766 111.676 66.4766C110.973 66.4766 109.71 67.6419 107.887 69.9727C106.507 71.7826 105.549 73.0846 105.016 73.8789L103.668 75.832C102.913 77.2643 102.333 78.4557 101.93 79.4062L100.934 81.6719C100.686 82.2318 100.471 82.6289 100.289 82.8633C100.107 83.0846 99.8529 83.1953 99.5273 83.1953C99.2018 83.1953 98.8828 83.1432 98.5703 83.0391C98.2708 82.9349 98.0104 82.7982 97.7891 82.6289C97.2812 82.2513 97.0273 81.8542 97.0273 81.4375C97.0273 81.0078 97.1641 80.4284 97.4375 79.6992C97.724 78.957 98.0755 78.1302 98.4922 77.2188L101.227 71.4375C102.203 69.2891 102.691 67.9284 102.691 67.3555C102.691 66.7695 102.424 66.4766 101.891 66.4766ZM103.824 71.9844C103.837 71.9844 103.844 71.9779 103.844 71.9648L103.863 71.9258C103.837 71.9518 103.824 71.9714 103.824 71.9844ZM121.598 81.6719C121.051 81.151 120.621 80.4935 120.309 79.6992C119.996 78.8919 119.833 77.9414 119.82 76.8477C119.807 75.7539 119.938 74.6471 120.211 73.5273C120.497 72.4076 120.895 71.3268 121.402 70.2852C121.923 69.2435 122.542 68.2669 123.258 67.3555C123.987 66.444 124.788 65.6497 125.66 64.9727C127.561 63.5143 129.534 62.7852 131.578 62.7852C134.26 62.7852 136.077 63.9635 137.027 66.3203C137.704 68.026 137.743 70.0898 137.145 72.5117C136.598 74.7383 135.595 76.7826 134.137 78.6445C132.691 80.5065 130.986 81.8281 129.02 82.6094C128.03 83 127.053 83.1953 126.09 83.1953C125.139 83.1953 124.286 83.0716 123.531 82.8242C122.789 82.5768 122.145 82.1927 121.598 81.6719ZM125.328 72.1992C124.938 73.1628 124.625 74.1523 124.391 75.168C124.169 76.1836 124.065 77.1471 124.078 78.0586C124.091 78.957 124.228 79.6667 124.488 80.1875C124.762 80.6953 125.198 80.9492 125.797 80.9492C126.396 80.9492 126.982 80.7474 127.555 80.3438C128.141 79.9271 128.707 79.3802 129.254 78.7031C129.801 78.026 130.315 77.2448 130.797 76.3594C131.279 75.474 131.702 74.5495 132.066 73.5859C132.861 71.4896 133.245 69.6276 133.219 68C133.219 66.5677 132.926 65.6562 132.34 65.2656C132.105 65.1094 131.773 65.0312 131.344 65.0312C130.927 65.0312 130.445 65.2266 129.898 65.6172C129.352 65.9948 128.805 66.5091 128.258 67.1602C127.711 67.8112 127.184 68.5729 126.676 69.4453C126.168 70.3177 125.719 71.2357 125.328 72.1992ZM140.543 77.4531C140.543 76.6979 140.595 75.9753 140.699 75.2852C140.816 74.5951 140.96 73.8984 141.129 73.1953C141.311 72.4922 141.513 71.7891 141.734 71.0859L143.922 64.4062C145.654 58.9896 146.741 54.7578 147.184 51.7109C147.327 50.6172 147.861 50.0703 148.785 50.0703C149.332 50.0703 149.794 50.2135 150.172 50.5C150.862 51.0599 151.194 51.6589 151.168 52.2969C151.155 52.9219 151.064 53.625 150.895 54.4062C150.738 55.1745 150.53 56.0143 150.27 56.9258C150.022 57.8372 149.736 58.7943 149.41 59.7969C148.538 62.375 147.887 64.237 147.457 65.3828L146.344 68.293C147.477 66.5352 148.401 65.3307 149.117 64.6797C150.549 63.4167 152.04 62.7852 153.59 62.7852C155.868 62.7852 157.385 63.9766 158.141 66.3594C158.388 67.1797 158.512 68.2018 158.512 69.4258C158.512 70.6497 158.329 71.8672 157.965 73.0781C157.613 74.276 157.132 75.3958 156.52 76.4375C155.908 77.4661 155.191 78.3971 154.371 79.2305C153.564 80.0638 152.711 80.7734 151.812 81.3594C149.911 82.5833 148.069 83.1953 146.285 83.1953C144.488 83.1953 143.076 82.6484 142.047 81.5547C141.044 80.4609 140.543 79.0938 140.543 77.4531ZM146.012 80.6562C147.236 80.6562 148.479 80.1094 149.742 79.0156C151.669 77.349 152.965 74.9661 153.629 71.8672C153.85 70.8516 153.961 69.7969 153.961 68.7031C153.961 67.5964 153.837 66.8216 153.59 66.3789C153.342 65.9362 152.958 65.7148 152.438 65.7148C151.93 65.7148 151.396 65.9232 150.836 66.3398C150.276 66.7565 149.69 67.3099 149.078 68C148.466 68.6771 147.861 69.4648 147.262 70.3633C146.663 71.2487 146.122 72.1667 145.641 73.1172C144.586 75.2135 144.059 76.9974 144.059 78.4688C144.059 79.9271 144.71 80.6562 146.012 80.6562ZM171.969 58.2148C171.682 58.5143 171.357 58.7617 170.992 58.957C170.628 59.1393 170.243 59.2565 169.84 59.3086C169.436 59.3477 169.052 59.2826 168.688 59.1133C168.336 58.944 168.03 58.7031 167.77 58.3906C167.21 57.7396 166.93 57.082 166.93 56.418C166.93 55.7539 167.034 55.2591 167.242 54.9336C167.464 54.5951 167.737 54.3216 168.062 54.1133C168.688 53.7096 169.273 53.5078 169.82 53.5078C170.38 53.5078 170.81 53.5469 171.109 53.625C171.422 53.7031 171.708 53.8333 171.969 54.0156C172.607 54.4453 172.926 54.9727 172.926 55.5977C172.926 56.2096 172.835 56.724 172.652 57.1406C172.483 57.5443 172.255 57.9023 171.969 58.2148ZM167.965 79.3477C168.303 79.3477 168.473 79.569 168.473 80.0117C168.473 80.5977 168.206 81.2031 167.672 81.8281C166.891 82.7396 165.842 83.1953 164.527 83.1953C163.017 83.1953 161.982 82.5833 161.422 81.3594C161.214 80.9297 161.109 80.4089 161.109 79.7969C161.109 79.1849 161.214 78.5078 161.422 77.7656C161.643 77.0104 161.91 76.2227 162.223 75.4023C162.548 74.569 162.9 73.7292 163.277 72.8828L164.312 70.4219C165.068 68.5859 165.445 67.375 165.445 66.7891C165.445 66.2031 165.38 65.819 165.25 65.6367C165.133 65.4414 165.003 65.2917 164.859 65.1875L164.469 64.9141C164.339 64.8229 164.273 64.6667 164.273 64.4453C164.273 64.2109 164.358 63.9896 164.527 63.7812C164.71 63.5729 164.944 63.3906 165.23 63.2344C165.816 62.9349 166.5 62.7852 167.281 62.7852C169.195 62.7852 170.152 63.2865 170.152 64.2891C170.152 65.4609 169.846 66.8021 169.234 68.3125C168.622 69.8099 168.102 71.0208 167.672 71.9453L166.5 74.6406C165.641 76.6198 165.211 78.0456 165.211 78.918C165.211 79.4909 165.497 79.7773 166.07 79.7773C166.63 79.7773 167.053 79.7057 167.34 79.5625C167.626 79.4193 167.835 79.3477 167.965 79.3477ZM173.824 82.2188C173.499 81.8802 173.232 81.4505 173.023 80.9297C172.828 80.3958 172.73 79.7839 172.73 79.0938C172.73 78.3906 172.887 77.4531 173.199 76.2812C173.525 75.1094 173.935 73.7747 174.43 72.2773L176.07 67.4141C178.401 60.6432 179.749 55.4089 180.113 51.7109C180.23 50.6172 180.764 50.0703 181.715 50.0703C182.314 50.0703 182.809 50.2135 183.199 50.5C183.954 51.0729 184.319 51.7109 184.293 52.4141C184.267 53.1172 184.143 53.9766 183.922 54.9922C183.701 55.9948 183.414 57.0951 183.062 58.293C182.711 59.4779 182.307 60.7344 181.852 62.0625L179.156 69.9922C177.607 74.4974 176.832 77.4076 176.832 78.7227C176.832 79.4258 177.118 79.7773 177.691 79.7773C178.238 79.7773 178.733 79.6602 179.176 79.4258C179.632 79.1914 179.924 79.0742 180.055 79.0742C180.328 79.0742 180.465 79.2109 180.465 79.4844C180.465 80.6432 179.872 81.6133 178.688 82.3945C177.893 82.9284 177.164 83.1953 176.5 83.1953C175.849 83.1953 175.322 83.1172 174.918 82.9609C174.514 82.8047 174.15 82.5573 173.824 82.2188ZM184.234 76.1641C184.286 75.0312 184.475 73.9505 184.801 72.9219C185.126 71.8802 185.562 70.8776 186.109 69.9141C186.656 68.9375 187.294 68.0195 188.023 67.1602C188.766 66.2878 189.566 65.526 190.426 64.875C192.288 63.4818 194.169 62.7852 196.07 62.7852C198.297 62.7852 199.781 63.7031 200.523 65.5391C200.784 66.1641 200.908 66.9062 200.895 67.7656C200.882 68.612 200.719 69.3997 200.406 70.1289C200.094 70.8451 199.658 71.5026 199.098 72.1016C198.551 72.6875 197.893 73.2148 197.125 73.6836C196.37 74.1523 195.543 74.5495 194.645 74.875C192.796 75.526 190.816 75.8646 188.707 75.8906C188.655 76.0729 188.622 76.3464 188.609 76.7109C188.596 77.0755 188.635 77.4857 188.727 77.9414C188.818 78.3841 188.974 78.7812 189.195 79.1328C189.664 79.9141 190.341 80.3047 191.227 80.3047C192.737 80.3047 194.208 79.862 195.641 78.9766C196.148 78.6771 196.559 78.3711 196.871 78.0586C197.197 77.7331 197.477 77.5703 197.711 77.5703C197.945 77.5703 198.147 77.7135 198.316 78C198.499 78.2734 198.59 78.5859 198.59 78.9375C198.59 79.6276 198.395 80.2266 198.004 80.7344C196.363 82.375 193.922 83.1953 190.68 83.1953C188.766 83.1953 187.229 82.6224 186.07 81.4766C184.768 80.1745 184.156 78.4036 184.234 76.1641ZM195.641 65.3828C194.273 65.3828 192.958 66.3203 191.695 68.1953C190.628 69.8099 189.768 71.724 189.117 73.9375C191.292 73.7161 193.18 72.8568 194.781 71.3594C196.253 69.9531 196.988 68.6055 196.988 67.3164C196.988 66.0273 196.539 65.3828 195.641 65.3828Z" fill="white"/>
</svg>
